<svg width="228" height="228" viewBox="0 0 228 228" fill="none" xmlns="http://www.w3.org/2000/svg">
<g clip-path="url(#clip0_2_2)">
<rect width="228" height="228" fill="white"/>
<path d="M188.5 185.5L156.5 217C175.7 206.6 193.5 191.667 200 185.5H188.5Z" fill="black" stroke="black"/>
<path fill-rule="evenodd" clip-rule="evenodd" d="M65.3737 182.941L111.368 196.588L120.155 217.263L102.197 224.96L101.803 224.04L118.845 216.737L110.632 197.412L65.6263 184.059L51.1175 197.117L56.4472 207.776L75 219.5L101.803 224.04L118.845 216.737L110.632 197.412L65.3737 182.941Z" fill="black"/>
<path d="M65.3737 182.941L111.368 196.588L120.155 217.263L102.197 224.96L101.803 224.04M65.3737 182.941L50.5 196.5M65.3737 182.941L110.632 197.412M101.803 224.04L118.845 216.737L110.632 197.412M101.803 224.04L75 219.5L56.4472 207.776L51.1175 197.117L65.6263 184.059L110.632 197.412" stroke="black"/>
<path fill-rule="evenodd" clip-rule="evenodd" d="M222.374 86.3339L211.999 62.472L214.49 106.806L224.883 119.178L224.117 119.822L224.883 131L224.883 109L222.374 86.3339Z" fill="black"/>
<g filter="url(#filter0_d_2_2)">
<circle cx="114" cy="114" r="112" stroke="black" stroke-width="4" shape-rendering="crispEdges"/>
</g>
<path d="M11 156.5V128H3C4.6 139.6 9 151.833 11 156.5Z" fill="black"/>
<path d="M2 128H3M3 128H11V156.5C9 151.833 4.6 139.6 3 128Z" stroke="black"/>
<path fill-rule="evenodd" clip-rule="evenodd" d="M56.9044 17.2059L61.1579 23.0546L32.4632 51.2369L27.1159 44.8201L27.8841 44.1799L38.5 33L56.9044 18.9061L59.0661 21.8785L59.842 22.9454L59.7308 23.0546L50.5 32.1206L32.5367 49.7631L59.842 22.9454L56.0956 17.7941L56.9044 17.2059Z" fill="black"/>
<path d="M78 63.5C65 64.5 38.4 66.6 36 67L23 114L54 140.5L91.5 109L78 63.5Z" fill="black" stroke="black"/>
<path d="M109.518 36.4066L107 11.6154L145.777 8L177 36.4066L158.871 55L109.518 36.4066Z" fill="black" stroke="black"/>
<line x1="59.8763" y1="23.5155" x2="106.876" y2="11.5155" stroke="black"/>
<path d="M158.5 54.5L167.5 95" stroke="black"/>
<path d="M176 36H193" stroke="black"/>
<path d="M201 119L214.5 107" stroke="black"/>
<line x1="32.4867" y1="49.8855" x2="36.4867" y2="66.8855" stroke="black"/>
<line x1="10.6222" y1="128.673" x2="23.6222" y2="113.673" stroke="black"/>
<line x1="51.4765" y1="139.848" x2="65.4765" y2="183.848" stroke="black"/>
<path d="M33 190L51.5 197" stroke="black"/>
<path d="M110.672 197.623L145 169" stroke="black"/>
<line x1="119.268" y1="216.578" x2="130.268" y2="223.578" stroke="black"/>
<line x1="185.495" y1="163.932" x2="188.495" y2="185.932" stroke="black"/>
<line x1="92.1647" y1="109.528" x2="135.165" y2="124.528" stroke="black"/>
<line x1="76.6863" y1="62.6106" x2="112.686" y2="33.6106" stroke="black"/>
<path d="M201 119L167.5 94.5L135 124L143.5 170.5L185.5 165.5L201 119Z" fill="black" stroke="black"/>
</g>
<defs>
<filter id="filter0_d_2_2" x="-4" y="0" width="236" height="236" filterUnits="userSpaceOnUse" color-interpolation-filters="sRGB">
<feFlood flood-opacity="0" result="BackgroundImageFix"/>
<feColorMatrix in="SourceAlpha" type="matrix" values="0 0 0 0 0 0 0 0 0 0 0 0 0 0 0 0 0 0 127 0" result="hardAlpha"/>
<feOffset dy="4"/>
<feGaussianBlur stdDeviation="2"/>
<feComposite in2="hardAlpha" operator="out"/>
<feColorMatrix type="matrix" values="0 0 0 0 0 0 0 0 0 0 0 0 0 0 0 0 0 0 0.25 0"/>
<feBlend mode="normal" in2="BackgroundImageFix" result="effect1_dropShadow_2_2"/>
<feBlend mode="normal" in="SourceGraphic" in2="effect1_dropShadow_2_2" result="shape"/>
</filter>
<clipPath id="clip0_2_2">
<rect width="228" height="228" fill="white"/>
</clipPath>
</defs>
</svg>
